<svg width="40" height="41" viewBox="0 0 40 41" fill="none" xmlns="http://www.w3.org/2000/svg">
<path d="M30.1408 8.32812C27.1008 8.42132 27.1016 12.7949 30.1408 12.8873C33.1808 12.7941 33.18 8.42052 30.1408 8.32812ZM20 10.9673C14.612 10.9673 10.2444 15.3465 10.2444 20.7485C10.7584 33.7233 29.2432 33.7197 29.7552 20.7485C29.7556 15.3465 25.3876 10.9673 20 10.9673ZM20 27.0977C16.5028 27.0977 13.6676 24.2549 13.6676 20.7485C14.0012 12.3265 26.0004 12.3285 26.3328 20.7485C26.3324 24.2553 23.4972 27.0977 20 27.0977Z" fill="white"/>
<path d="M38.8832 12.9158C38.7424 6.24899 34.5008 2.00499 27.8324 1.86539C26.2312 1.71099 13.7696 1.70819 12.1672 1.86539C5.50039 2.00619 1.25639 6.24779 1.11679 12.9162C0.962389 14.515 0.959189 26.9806 1.11679 28.5814C1.24119 35.2266 5.52119 39.5078 12.1672 39.6318C13.7684 39.7878 26.23 39.7878 27.8324 39.6318C29.8544 39.5394 31.2356 39.2182 32.444 38.7486C36.6788 37.057 38.748 33.2942 38.8832 28.581C39.0376 26.9798 39.0404 14.5182 38.8832 12.9158ZM27.6764 36.2122C26.1008 36.3626 13.9 36.365 12.3232 36.2122C10.4712 36.1278 9.46519 35.8182 8.79559 35.5582C3.01599 32.8774 4.80799 27.4562 4.53559 20.015C4.54159 18.2866 4.53199 14.8006 4.53599 13.0722C4.76679 7.91939 7.19359 5.53379 12.3232 5.28499C13.9008 5.13459 26.0984 5.13219 27.6764 5.28499C32.8308 5.51579 35.214 7.94259 35.4636 13.0718C35.5656 14.3034 35.6396 21.0266 35.4636 24.429C35.6536 30.8194 35.3624 35.8374 27.6764 36.2122Z" fill="white"/>
</svg>
