<svg width="40" height="41" viewBox="0 0 40 41" fill="none" xmlns="http://www.w3.org/2000/svg">
<path d="M36.1916 1.75376C30.3472 1.73736 8.7908 1.76496 3.8084 1.75376C2.258 1.75376 1 2.97336 1 4.47536V37.0278C1 38.5302 2.258 39.7486 3.8084 39.7486H36.1916C37.7428 39.7486 39 38.5302 39 37.0274V4.47536C39 2.97336 37.7428 1.75376 36.1916 1.75376Z" fill="white"/>
<path d="M21.3812 33.5505C21.3812 33.5505 21.3812 23.9993 21.3812 23.9989C21.3256 22.2437 22.3748 20.6057 24.486 20.5321C26.5432 20.5321 27.3664 22.1005 27.3664 24.4001V33.5501H33.052V23.7425C33.052 18.4885 30.2472 16.0437 26.506 16.0437C23.4388 16.0437 22.0916 17.7577 21.3432 18.9253L21.3812 16.4453H15.6956C15.7696 18.0501 15.6952 33.5505 15.6952 33.5505H21.3812ZM12.548 26.1329V16.4449H6.86161V33.5501H12.5484C12.5472 31.7541 12.5504 27.9037 12.548 26.1329ZM9.70601 14.1101C11.6884 14.1101 12.9228 12.7965 12.9228 11.1553C12.9064 7.19651 6.52121 7.24051 6.52641 11.1549C6.52201 12.8089 7.79041 14.1305 9.70601 14.1101Z" fill="#292929"/>
</svg>
