<svg width="40" height="41" viewBox="0 0 40 41" fill="none" xmlns="http://www.w3.org/2000/svg">
<path d="M38.5684 9.19729C37.2016 9.80449 35.7332 10.2129 34.192 10.3973C35.766 9.45449 36.9728 7.96209 37.5412 6.18249C36.07 7.05529 34.4392 7.68929 32.702 8.03209C31.3124 6.55089 29.3328 5.62529 27.1416 5.62529C22.2984 5.56049 18.5748 10.2921 19.7208 14.9793C13.3892 14.6621 7.77601 11.6285 4.01681 7.01769C1.96521 10.3633 3.13001 15.1477 6.37521 17.1901C5.12681 17.1501 3.95121 16.8073 2.92441 16.2373C2.87681 19.9593 5.51721 23.1017 9.03601 23.8029C7.95481 24.1045 6.70921 24.1517 5.59521 23.9341C6.56521 26.9605 9.37881 29.1645 12.7124 29.2257C9.69841 31.6341 5.47881 32.8897 1.43201 32.3809C17.7048 42.3957 35.694 29.2749 34.7652 13.1405C36.2544 12.0653 37.5472 10.7241 38.5684 9.19729Z" fill="white"/>
</svg>
